<svg xmlns="http://www.w3.org/2000/svg" viewBox="0 0 468.05 65.71"><defs><style>.cls-1{fill:#231f20;}.cls-2{fill:#573e81;}</style></defs><g id="Layer_2" data-name="Layer 2"><g id="Layer_1-2" data-name="Layer 1"><path class="cls-1" d="M57.63,32.78c0,18.27-13.41,31.35-32.3,31.35H0V1.55H25.33C44.28,1.55,57.63,14.5,57.63,32.78ZM40,32.78c0-9.28-6.18-15.44-15.44-15.44h-7.2v31h7.2C33.78,48.34,40,42,40,32.78Z"/><path class="cls-1" d="M115.52,39.53a31.39,31.39,0,0,1-.34,4.4H79.33c1.09,5.54,4.6,8.41,9.85,8.41,3.89,0,7.13-1.71,8.73-4.53h16.55c-3.4,11-13.16,17.9-25.28,17.9C74.12,65.71,63,54.7,63,40S74,14.27,89.18,14.27c15.57,0,26.34,11.1,26.34,25.26Zm-35.9-4.8H99.14c-1.46-4.83-4.94-7.43-10-7.43C84.34,27.3,81,29.93,79.62,34.73Z"/><path class="cls-1" d="M147,65.71c-15.49,0-26.66-10.85-26.66-25.79S131.42,14.34,147,14.34c13.57,0,23.74,8.56,25.56,21.4h-16.2a9.8,9.8,0,0,0-9.41-6.5c-5.85,0-10,4.44-10,10.73s4.21,10.84,10,10.84a9.74,9.74,0,0,0,9.45-7h16.34c-1.88,13.1-12.2,21.94-25.79,21.94Z"/><path class="cls-1" d="M229.66,39.53a30,30,0,0,1-.34,4.4H193.48c1.08,5.54,4.6,8.41,9.85,8.41,3.88,0,7.13-1.71,8.73-4.53h16.55c-3.4,11-13.17,17.9-25.28,17.9-15.06,0-26.22-11-26.22-25.76s11.07-25.68,26.22-25.68c15.56,0,26.34,11.1,26.34,25.26Zm-35.89-4.8h19.51c-1.45-4.83-4.93-7.43-9.95-7.43C198.48,27.3,195.11,29.93,193.77,34.73Z"/><path class="cls-2" d="M292.2,3v60.9H278.32l-24.19-33V63.94H237.88V3h14.68l23.38,32V3Z"/><path class="cls-1" d="M308.47,23.7c.62-.7,1.29-1.36,2-2a.59.59,0,0,0,.19-.7,3.11,3.11,0,0,1,5-3.33.5.5,0,0,0,.63.09A25.1,25.1,0,0,1,338,17.58c.26.13.44.21.72,0a3,3,0,0,1,3.54-.16,3.08,3.08,0,0,1,1.38,3.37.55.55,0,0,0,.22.69,1.25,1.25,0,0,1,.27.24,2,2,0,0,0,2.26.77,2.66,2.66,0,0,1,2.8,1.42,2.86,2.86,0,0,1,0,3.24.83.83,0,0,0,0,1,24.3,24.3,0,0,1,3.07,10.11c0,.15.07.29.1.44v3.6c-.13.91-.24,1.82-.41,2.72a24.94,24.94,0,0,1-7.68,14,.64.64,0,0,0-.24.77,3.1,3.1,0,0,1-4.87,3.33.59.59,0,0,0-.73-.06A24.87,24.87,0,0,1,316,63a.56.56,0,0,0-.68.06,3.12,3.12,0,0,1-4.79-3.31.58.58,0,0,0-.21-.66,25.24,25.24,0,0,1-7.82-14.26,41.35,41.35,0,0,1-.39-4.18.54.54,0,0,0-.38-.56,3,3,0,0,1-1.94-3.31,3,3,0,0,1,2.61-2.65c.44-.07.57-.29.67-.66a24.14,24.14,0,0,1,2.74-6.27m1.33.81a23,23,0,0,0-2.48,5.55c-.09.29-.16.59-.22.8.39.43.72.81,1.09,1.17a.59.59,0,0,0,.43.11,51,51,0,0,1,9-1,.83.83,0,0,0,.52-.29,3.1,3.1,0,0,1,3.16-1.46.64.64,0,0,0,.69-.28,32.38,32.38,0,0,1,4.86-5.27.57.57,0,0,0,.18-.65c-.14-.6-.18-1.23-.28-2a32.52,32.52,0,0,0-7.69-3.31,3.22,3.22,0,0,1-2.06,1.61,3.17,3.17,0,0,1-2.61-.5l-2.14,2.21M317.22,39c-.06.14-.12.26-.18.38A33.36,33.36,0,0,0,314,49.89a33.89,33.89,0,0,0-.1,7.12c0,.15.15.39.26.42a3.42,3.42,0,0,1,2.08,1.4l.26-.09a46.27,46.27,0,0,0,8.45-4.14A46.66,46.66,0,0,0,336.7,44.17a.5.5,0,0,0,.07-.58,7.68,7.68,0,0,1-.39-1.82.77.77,0,0,0-.5-.8,46.61,46.61,0,0,0-11.71-3.9c-1-.19-1.95-.32-2.91-.47C320.48,38.63,319.28,39.35,317.22,39Zm25.09,14.52c0,1.09,0,2.19-.12,3.28-.06.65,0,1.09.81,1.23a23.72,23.72,0,0,0,5.6-7.53c.15-.3,0-.43-.18-.6a49.36,49.36,0,0,0-6.32-5.31c-.39-.27-.67-.35-1,.1,0,0,0,.1,0,.16.25,1.27.52,2.54.76,3.81m-1.54.15a25.71,25.71,0,0,0-.72-3.68c-.26,0-.41,0-.57,0a1.59,1.59,0,0,1-.49-.11c-.37-.2-.56-.05-.8.24a47.44,47.44,0,0,1-20,14.6c-.75.29-1.31.57-1.25,1.47a1,1,0,0,1,0,.21l.52.26a23.43,23.43,0,0,0,20.49,0A.67.67,0,0,0,338,61a3.09,3.09,0,0,1,2.16-3.28l.47-.16c.05-1.32.11-2.64.15-3.95m-26-17.38-8.77,1a3.14,3.14,0,0,1-2.4,3.1,26.19,26.19,0,0,0,7.88,17.84c.88-.57.87-.57.8-1.34a34.86,34.86,0,0,1,.7-10.44,36.08,36.08,0,0,1,2.68-7.77.67.67,0,0,0,.07-.51C315.51,37.49,315.2,36.93,314.81,36.18ZM340.3,39a45.35,45.35,0,0,0,4.63-10.42.57.57,0,0,0-.22-.47,3,3,0,0,1-1.25-2.62,13.39,13.39,0,0,1,.42-1.85l-1.28-1.19a3.17,3.17,0,0,1-2.61.65,3.24,3.24,0,0,1-2.16-1.56,32.09,32.09,0,0,0-7.25,3.15.77.77,0,0,0-.23.52,9.9,9.9,0,0,1-.16,1.45.67.67,0,0,0,.25.82,35,35,0,0,1,8.16,10.69c.26.54.52.87,1.15.75A2.43,2.43,0,0,1,340.3,39Zm7.37-10.49a2.65,2.65,0,0,1-.53.12c-.51,0-.69.26-.82.71-.23.8-.51,1.59-.79,2.37a50,50,0,0,1-3.65,7.72c-.09.15-.16.43-.08.52a3.31,3.31,0,0,1,.68,2.89l7,5.74A24.1,24.1,0,0,0,347.67,28.5Zm-27.26,5.29a6.26,6.26,0,0,1,.53.86c.12.33.35.4.65.45,1.93.35,3.87.65,5.78,1.1a44.17,44.17,0,0,1,9.43,3.49.72.72,0,0,0,.54,0,.53.53,0,0,0,.05-.46,33.42,33.42,0,0,0-8.12-10.71.61.61,0,0,0-.56-.06,2.47,2.47,0,0,1-2.18.22c-1-.58-1.57,0-2.17.64l-.11.1A33.1,33.1,0,0,0,320.41,33.79ZM337.5,19.1c-.12-.07-.31-.16-.49-.24a23.66,23.66,0,0,0-20,.25.6.6,0,0,0-.31.47.63.63,0,0,0,.38.42c1,.39,2.11.68,3.13,1.12,1.64.71,3.24,1.51,4.88,2.28a3.11,3.11,0,0,1,4.07-.19.59.59,0,0,0,.8,0,32.6,32.6,0,0,1,6.67-3C337.2,20.1,337.7,19.94,337.5,19.1Zm10.59,6.46a1.56,1.56,0,1,0-1.56,1.55A1.53,1.53,0,0,0,348.09,25.56ZM304.44,37.21a1.51,1.51,0,0,0-1.55-1.55,1.57,1.57,0,0,0,0,3.14A1.52,1.52,0,0,0,304.44,37.21ZM342.14,20a1.54,1.54,0,0,0-1.56-1.56A1.58,1.58,0,0,0,339,20a1.52,1.52,0,0,0,1.57,1.54A1.48,1.48,0,0,0,342.14,20ZM341,42a1.55,1.55,0,0,0-1.54-1.58,1.58,1.58,0,0,0,0,3.16A1.54,1.54,0,0,0,341,42ZM315.13,20a1.52,1.52,0,0,0-1.55-1.56A1.57,1.57,0,1,0,315.13,20Zm25.95,42.2a1.56,1.56,0,0,0,1.55-1.57,1.55,1.55,0,0,0-3.1,0A1.54,1.54,0,0,0,341.08,62.22ZM318.17,34.46A1.56,1.56,0,1,0,319.72,36,1.57,1.57,0,0,0,318.17,34.46Zm-3,26.08a1.56,1.56,0,1,0-1.57,1.56A1.57,1.57,0,0,0,315.13,60.54ZM328.8,25.67a1.51,1.51,0,0,0-1.54-1.56,1.59,1.59,0,0,0-1.57,1.57,1.57,1.57,0,0,0,1.57,1.55A1.5,1.5,0,0,0,328.8,25.67Z"/><path class="cls-2" d="M409.5,0V63.94h-12L396,60.45a21.69,21.69,0,0,1-14.16,5.08c-14.42,0-24.69-10.48-24.69-25.08s10.27-25,24.69-25a22,22,0,0,1,11.67,3.26V0Zm-15,40.45a10.52,10.52,0,1,0-21,0,10.52,10.52,0,1,0,21,0Z"/><path class="cls-2" d="M468.05,40a29.84,29.84,0,0,1-.34,4.28H432.83c1.06,5.39,4.48,8.17,9.59,8.17,3.78,0,6.94-1.65,8.5-4.4H467c-3.3,10.72-12.8,17.42-24.59,17.42-14.65,0-25.51-10.71-25.51-25.06s10.77-25,25.51-25c15.14,0,25.63,10.81,25.63,24.58Zm-34.93-4.68h19c-1.42-4.69-4.81-7.23-9.69-7.23C437.71,28.1,434.43,30.66,433.12,35.33Z"/></g></g></svg>